<svg xmlns="http://www.w3.org/2000/svg" viewBox="0 0 671.43 113.6"><defs><style>path{fill:#fff}</style></defs><path d="M0 113.6h671.43V0H0v113.6zM121.7 4.95h544.78v103.7H121.7V4.95zm-116.75 0h111.81v103.7H4.95V4.95z"/><path d="M618.9 86.3H609V63.51l-21.47-34.92h10.65l15.77 26.25 15.77-26.25h10.65L618.9 63.51V86.3M549.14 86.3V28.59h9.74v48.46h26.34v9.25h-36.08M517.6 28.59h9.74V86.3h-9.74V28.59zM458.74 73.17L453 86.3h-10.4L468 28.59h10.4l25.42 57.71h-10.4l-5.78-13.13h-28.9zm24.93-9L473.19 40.4 462.7 64.17h21zM423.9 36.14q8.34 7.55 8.34 21t-8.09 21.3q-8.09 7.84-24.77 7.84h-19.15V28.59H400q15.52 0 23.86 7.55m-1.44 21.26q0-19.81-22.7-19.81H390v39.54h10.82q10.48 0 16.06-5t5.57-14.74M313.29 86.18l11.06-34.91 11.13 34.91h12.61l20.31-57.49h-16.53l-10.54 30.1-9.33-30.1h-15.24l-9.4 30.1-10.46-30.1h-16.54l20.32 57.49h12.6M240.5 63.83h25.84V51H240.5v-9h28.73V28.75h-44v57.36h44.95V72.93H240.5v-9.1zM190.71 28.75v33.16l-26.5-33.16h-13.87v57.36h15.31v-32.2l25.67 32.2H206V28.75h-15.29M93 47.2v3H81.71v5.08h10.14v2.88H81.71v5.14h11.65v3H78.13V47.2H93M51.57 66.4V47.2h3.57v8.32h10.51V47.2h3.57v19.2h-3.57v-7.86h-10.5v7.86h-3.58M38.25 50.17V66.4h-3.58V50.17h-6.42v-3h16.42v3h-6.42"/></svg>